<mxfile host="app.diagrams.net" modified="2022-10-02T09:32:16.212Z" agent="5.0 (Macintosh; Intel Mac OS X 10_15_7) AppleWebKit/537.36 (KHTML, like Gecko) Chrome/106.0.0.0 Safari/537.36" etag="_ShSf3sky_ViIdyKNp-i" version="20.4.0" type="github">
  <diagram id="kgpKYQtTHZ0yAKxKKP6v" name="Page-1">
    <mxGraphModel dx="793" dy="1050" grid="1" gridSize="10" guides="1" tooltips="1" connect="1" arrows="1" fold="1" page="1" pageScale="1" pageWidth="850" pageHeight="1100" math="0" shadow="0">
      <root>
        <mxCell id="0" />
        <mxCell id="1" parent="0" />
        <mxCell id="3nuBFxr9cyL0pnOWT2aG-1" value="User&#xa;(== Browser)" style="shape=umlLifeline;perimeter=lifelinePerimeter;container=1;collapsible=0;recursiveResize=0;rounded=0;shadow=0;strokeWidth=1;" parent="1" vertex="1">
          <mxGeometry x="120" y="80" width="100" height="790" as="geometry" />
        </mxCell>
        <mxCell id="3nuBFxr9cyL0pnOWT2aG-5" value="Front End" style="shape=umlLifeline;perimeter=lifelinePerimeter;container=1;collapsible=0;recursiveResize=0;rounded=0;shadow=0;strokeWidth=1;" parent="1" vertex="1">
          <mxGeometry x="300" y="80" width="100" height="780" as="geometry" />
        </mxCell>
        <mxCell id="3nuBFxr9cyL0pnOWT2aG-8" value="trigger login" style="verticalAlign=bottom;endArrow=block;entryX=0;entryY=0;shadow=0;strokeWidth=1;" parent="1" edge="1">
          <mxGeometry relative="1" as="geometry">
            <mxPoint x="175" y="160" as="sourcePoint" />
            <mxPoint x="345" y="160" as="targetPoint" />
          </mxGeometry>
        </mxCell>
        <mxCell id="M8whOciXo7hSZbE4vqmY-1" value="Back End" style="shape=umlLifeline;perimeter=lifelinePerimeter;container=1;collapsible=0;recursiveResize=0;rounded=0;shadow=0;strokeWidth=1;" parent="1" vertex="1">
          <mxGeometry x="460" y="80" width="120" height="740" as="geometry" />
        </mxCell>
        <mxCell id="M8whOciXo7hSZbE4vqmY-33" value="some backend logic&lt;br&gt;(find/create db, init jwt...)" style="rounded=0;whiteSpace=wrap;html=1;fillColor=#f8cecc;strokeColor=#b85450;" parent="M8whOciXo7hSZbE4vqmY-1" vertex="1">
          <mxGeometry y="630" width="120" height="60" as="geometry" />
        </mxCell>
        <mxCell id="M8whOciXo7hSZbE4vqmY-3" value="42 OAuth" style="shape=umlLifeline;perimeter=lifelinePerimeter;container=1;collapsible=0;recursiveResize=0;rounded=0;shadow=0;strokeWidth=1;" parent="1" vertex="1">
          <mxGeometry x="650" y="80" width="100" height="730" as="geometry" />
        </mxCell>
        <mxCell id="M8whOciXo7hSZbE4vqmY-17" value="return login page to browser" style="endArrow=classic;html=1;rounded=0;exitX=0.5;exitY=0.292;exitDx=0;exitDy=0;exitPerimeter=0;" parent="1" source="M8whOciXo7hSZbE4vqmY-3" target="3nuBFxr9cyL0pnOWT2aG-1" edge="1">
          <mxGeometry x="0.017" y="-10" width="50" height="50" relative="1" as="geometry">
            <mxPoint x="640" y="290" as="sourcePoint" />
            <mxPoint x="660" y="240" as="targetPoint" />
            <Array as="points" />
            <mxPoint x="1" as="offset" />
          </mxGeometry>
        </mxCell>
        <mxCell id="M8whOciXo7hSZbE4vqmY-19" value="send login info to 42 oauth" style="endArrow=classic;html=1;rounded=0;" parent="1" target="M8whOciXo7hSZbE4vqmY-3" edge="1">
          <mxGeometry x="-0.0237" y="10" width="50" height="50" relative="1" as="geometry">
            <mxPoint x="180" y="320" as="sourcePoint" />
            <mxPoint x="270" y="300" as="targetPoint" />
            <mxPoint as="offset" />
          </mxGeometry>
        </mxCell>
        <mxCell id="M8whOciXo7hSZbE4vqmY-20" value="redirect browser to backend with query by redirect_uri" style="endArrow=classic;html=1;rounded=0;exitX=0.51;exitY=0.385;exitDx=0;exitDy=0;exitPerimeter=0;" parent="1" source="M8whOciXo7hSZbE4vqmY-3" target="M8whOciXo7hSZbE4vqmY-1" edge="1">
          <mxGeometry x="-0.0056" y="-20" width="50" height="50" relative="1" as="geometry">
            <mxPoint x="590" y="375" as="sourcePoint" />
            <mxPoint x="640" y="325" as="targetPoint" />
            <mxPoint as="offset" />
          </mxGeometry>
        </mxCell>
        <mxCell id="M8whOciXo7hSZbE4vqmY-21" value="&amp;nbsp; &amp;nbsp;query: code, state" style="ellipse;shape=cloud;whiteSpace=wrap;html=1;" parent="1" vertex="1">
          <mxGeometry x="540" y="350" width="140" height="50" as="geometry" />
        </mxCell>
        <mxCell id="M8whOciXo7hSZbE4vqmY-22" value="" style="endArrow=classic;html=1;rounded=0;exitX=0.492;exitY=0.449;exitDx=0;exitDy=0;exitPerimeter=0;fillColor=#f8cecc;strokeColor=#b85450;" parent="1" source="M8whOciXo7hSZbE4vqmY-1" target="M8whOciXo7hSZbE4vqmY-3" edge="1">
          <mxGeometry width="50" height="50" relative="1" as="geometry">
            <mxPoint x="575" y="470" as="sourcePoint" />
            <mxPoint x="625" y="420" as="targetPoint" />
          </mxGeometry>
        </mxCell>
        <mxCell id="M8whOciXo7hSZbE4vqmY-23" value="request access token with query (by fetch or axios.., method POST)" style="edgeLabel;html=1;align=center;verticalAlign=middle;resizable=0;points=[];" parent="M8whOciXo7hSZbE4vqmY-22" vertex="1" connectable="0">
          <mxGeometry x="-0.0028" y="3" relative="1" as="geometry">
            <mxPoint x="1" y="-7" as="offset" />
          </mxGeometry>
        </mxCell>
        <mxCell id="M8whOciXo7hSZbE4vqmY-24" value="query:&lt;br&gt;code, state, redirect_uri, client_id, client_secret, grant_type" style="ellipse;shape=cloud;whiteSpace=wrap;html=1;" parent="1" vertex="1">
          <mxGeometry x="520" y="405" width="180" height="80" as="geometry" />
        </mxCell>
        <mxCell id="M8whOciXo7hSZbE4vqmY-25" value="" style="endArrow=classic;html=1;rounded=0;fillColor=#f8cecc;strokeColor=#b85450;" parent="1" target="M8whOciXo7hSZbE4vqmY-1" edge="1">
          <mxGeometry width="50" height="50" relative="1" as="geometry">
            <mxPoint x="690" y="500" as="sourcePoint" />
            <mxPoint x="630" y="510" as="targetPoint" />
          </mxGeometry>
        </mxCell>
        <mxCell id="M8whOciXo7hSZbE4vqmY-26" value="response with body" style="edgeLabel;html=1;align=center;verticalAlign=middle;resizable=0;points=[];" parent="M8whOciXo7hSZbE4vqmY-25" vertex="1" connectable="0">
          <mxGeometry x="0.0199" y="2" relative="1" as="geometry">
            <mxPoint x="1" y="-12" as="offset" />
          </mxGeometry>
        </mxCell>
        <mxCell id="M8whOciXo7hSZbE4vqmY-27" value="body:&lt;br&gt;access_token&lt;br&gt;refresh_token&lt;br&gt;expired_in&lt;br&gt;..." style="ellipse;shape=cloud;whiteSpace=wrap;html=1;" parent="1" vertex="1">
          <mxGeometry x="530" y="490" width="160" height="90" as="geometry" />
        </mxCell>
        <mxCell id="M8whOciXo7hSZbE4vqmY-28" value="" style="endArrow=classic;html=1;rounded=0;exitX=0.508;exitY=0.699;exitDx=0;exitDy=0;exitPerimeter=0;fillColor=#f8cecc;strokeColor=#b85450;" parent="1" source="M8whOciXo7hSZbE4vqmY-1" target="M8whOciXo7hSZbE4vqmY-3" edge="1">
          <mxGeometry width="50" height="50" relative="1" as="geometry">
            <mxPoint x="520" y="650" as="sourcePoint" />
            <mxPoint x="570" y="600" as="targetPoint" />
          </mxGeometry>
        </mxCell>
        <mxCell id="M8whOciXo7hSZbE4vqmY-29" value="request user info by access_token" style="edgeLabel;html=1;align=center;verticalAlign=middle;resizable=0;points=[];" parent="M8whOciXo7hSZbE4vqmY-28" vertex="1" connectable="0">
          <mxGeometry x="0.0919" y="1" relative="1" as="geometry">
            <mxPoint x="-9" y="-11" as="offset" />
          </mxGeometry>
        </mxCell>
        <mxCell id="M8whOciXo7hSZbE4vqmY-30" value="header:&lt;br&gt;Authorization: bearer access_token" style="ellipse;shape=cloud;whiteSpace=wrap;html=1;" parent="1" vertex="1">
          <mxGeometry x="530" y="590" width="160" height="50" as="geometry" />
        </mxCell>
        <mxCell id="M8whOciXo7hSZbE4vqmY-31" value="" style="endArrow=classic;html=1;rounded=0;exitX=0.48;exitY=0.795;exitDx=0;exitDy=0;exitPerimeter=0;fillColor=#f8cecc;strokeColor=#b85450;" parent="1" source="M8whOciXo7hSZbE4vqmY-3" target="M8whOciXo7hSZbE4vqmY-1" edge="1">
          <mxGeometry width="50" height="50" relative="1" as="geometry">
            <mxPoint x="690" y="730" as="sourcePoint" />
            <mxPoint x="600" y="730" as="targetPoint" />
          </mxGeometry>
        </mxCell>
        <mxCell id="M8whOciXo7hSZbE4vqmY-32" value="response with body contains user info" style="edgeLabel;html=1;align=center;verticalAlign=middle;resizable=0;points=[];" parent="M8whOciXo7hSZbE4vqmY-31" vertex="1" connectable="0">
          <mxGeometry x="-0.0364" y="1" relative="1" as="geometry">
            <mxPoint y="-11" as="offset" />
          </mxGeometry>
        </mxCell>
        <mxCell id="M8whOciXo7hSZbE4vqmY-35" style="edgeStyle=orthogonalEdgeStyle;rounded=0;orthogonalLoop=1;jettySize=auto;html=1;entryX=0.5;entryY=0.962;entryDx=0;entryDy=0;entryPerimeter=0;" parent="1" source="M8whOciXo7hSZbE4vqmY-33" target="3nuBFxr9cyL0pnOWT2aG-5" edge="1">
          <mxGeometry relative="1" as="geometry" />
        </mxCell>
        <mxCell id="M8whOciXo7hSZbE4vqmY-36" value="redirect browser to front end" style="edgeLabel;html=1;align=center;verticalAlign=middle;resizable=0;points=[];" parent="M8whOciXo7hSZbE4vqmY-35" vertex="1" connectable="0">
          <mxGeometry x="0.2142" y="-2" relative="1" as="geometry">
            <mxPoint x="21" y="12" as="offset" />
          </mxGeometry>
        </mxCell>
        <mxCell id="M8whOciXo7hSZbE4vqmY-37" value="red: internal backend logic&lt;br&gt;(can&#39;t see in browser)" style="rounded=0;whiteSpace=wrap;html=1;fillColor=#f8cecc;strokeColor=#b85450;" parent="1" vertex="1">
          <mxGeometry x="20" y="10" width="120" height="60" as="geometry" />
        </mxCell>
        <mxCell id="M8whOciXo7hSZbE4vqmY-39" value="black: http request/response with browser" style="rounded=0;whiteSpace=wrap;html=1;" parent="1" vertex="1">
          <mxGeometry x="140" y="10" width="120" height="60" as="geometry" />
        </mxCell>
        <mxCell id="M8whOciXo7hSZbE4vqmY-9" value="redirect browser to oauth with query" style="endArrow=classic;html=1;rounded=0;verticalAlign=middle;horizontal=1;exitX=0.517;exitY=0.158;exitDx=0;exitDy=0;exitPerimeter=0;" parent="1" source="M8whOciXo7hSZbE4vqmY-1" target="M8whOciXo7hSZbE4vqmY-3" edge="1">
          <mxGeometry x="0.104" y="17" width="50" height="50" relative="1" as="geometry">
            <mxPoint x="350" y="180" as="sourcePoint" />
            <mxPoint x="175" y="170" as="targetPoint" />
            <mxPoint as="offset" />
          </mxGeometry>
        </mxCell>
        <mxCell id="M8whOciXo7hSZbE4vqmY-44" value="" style="endArrow=classic;html=1;rounded=0;entryX=0.508;entryY=0.139;entryDx=0;entryDy=0;entryPerimeter=0;exitX=0.52;exitY=0.133;exitDx=0;exitDy=0;exitPerimeter=0;" parent="1" source="3nuBFxr9cyL0pnOWT2aG-5" target="M8whOciXo7hSZbE4vqmY-1" edge="1">
          <mxGeometry width="50" height="50" relative="1" as="geometry">
            <mxPoint x="400" y="200" as="sourcePoint" />
            <mxPoint x="450" y="150" as="targetPoint" />
          </mxGeometry>
        </mxCell>
        <mxCell id="M8whOciXo7hSZbE4vqmY-45" value="redirect browser to back end" style="edgeLabel;html=1;align=center;verticalAlign=middle;resizable=0;points=[];" parent="M8whOciXo7hSZbE4vqmY-44" vertex="1" connectable="0">
          <mxGeometry x="0.1126" y="-1" relative="1" as="geometry">
            <mxPoint x="-6" y="-14" as="offset" />
          </mxGeometry>
        </mxCell>
        <mxCell id="M8whOciXo7hSZbE4vqmY-16" value="query:&lt;br&gt;client id,&lt;br&gt;state,&lt;br&gt;redirect_uri,&lt;br&gt;response_type" style="ellipse;shape=cloud;whiteSpace=wrap;html=1;" parent="1" vertex="1">
          <mxGeometry x="540" y="180" width="140" height="100" as="geometry" />
        </mxCell>
        <mxCell id="M8whOciXo7hSZbE4vqmY-46" value="Data" style="swimlane;fontStyle=0;childLayout=stackLayout;horizontal=1;startSize=30;horizontalStack=0;resizeParent=1;resizeParentMax=0;resizeLast=0;collapsible=1;marginBottom=0;" parent="1" vertex="1">
          <mxGeometry x="170" y="890" width="510" height="210" as="geometry">
            <mxRectangle x="170" y="890" width="70" height="30" as="alternateBounds" />
          </mxGeometry>
        </mxCell>
        <mxCell id="M8whOciXo7hSZbE4vqmY-47" value="client_id: 42 api client id" style="text;strokeColor=none;fillColor=none;align=left;verticalAlign=middle;spacingLeft=4;spacingRight=4;overflow=hidden;points=[[0,0.5],[1,0.5]];portConstraint=eastwest;rotatable=0;" parent="M8whOciXo7hSZbE4vqmY-46" vertex="1">
          <mxGeometry y="30" width="510" height="30" as="geometry" />
        </mxCell>
        <mxCell id="M8whOciXo7hSZbE4vqmY-48" value="client_secret: 42 api client secret" style="text;strokeColor=none;fillColor=none;align=left;verticalAlign=middle;spacingLeft=4;spacingRight=4;overflow=hidden;points=[[0,0.5],[1,0.5]];portConstraint=eastwest;rotatable=0;" parent="M8whOciXo7hSZbE4vqmY-46" vertex="1">
          <mxGeometry y="60" width="510" height="30" as="geometry" />
        </mxCell>
        <mxCell id="M8whOciXo7hSZbE4vqmY-49" value="state: random long string for security, must be equal all the time" style="text;strokeColor=none;fillColor=none;align=left;verticalAlign=middle;spacingLeft=4;spacingRight=4;overflow=hidden;points=[[0,0.5],[1,0.5]];portConstraint=eastwest;rotatable=0;" parent="M8whOciXo7hSZbE4vqmY-46" vertex="1">
          <mxGeometry y="90" width="510" height="30" as="geometry" />
        </mxCell>
        <mxCell id="M8whOciXo7hSZbE4vqmY-51" value="redirect_uri: redirect uri of backend. used by 42 oauth, must be eualt all the time" style="text;strokeColor=none;fillColor=none;align=left;verticalAlign=middle;spacingLeft=4;spacingRight=4;overflow=hidden;points=[[0,0.5],[1,0.5]];portConstraint=eastwest;rotatable=0;" parent="M8whOciXo7hSZbE4vqmY-46" vertex="1">
          <mxGeometry y="120" width="510" height="30" as="geometry" />
        </mxCell>
        <mxCell id="M8whOciXo7hSZbE4vqmY-52" value="response_type: api response type. just use code." style="text;strokeColor=none;fillColor=none;align=left;verticalAlign=middle;spacingLeft=4;spacingRight=4;overflow=hidden;points=[[0,0.5],[1,0.5]];portConstraint=eastwest;rotatable=0;" parent="M8whOciXo7hSZbE4vqmY-46" vertex="1">
          <mxGeometry y="150" width="510" height="30" as="geometry" />
        </mxCell>
        <mxCell id="M8whOciXo7hSZbE4vqmY-53" value="grant_type: api response type. just use authorization_code" style="text;strokeColor=none;fillColor=none;align=left;verticalAlign=middle;spacingLeft=4;spacingRight=4;overflow=hidden;points=[[0,0.5],[1,0.5]];portConstraint=eastwest;rotatable=0;" parent="M8whOciXo7hSZbE4vqmY-46" vertex="1">
          <mxGeometry y="180" width="510" height="30" as="geometry" />
        </mxCell>
      </root>
    </mxGraphModel>
  </diagram>
</mxfile>
